HIERARCHY
ROOT root
{
	OFFSET 0.000000 0.000000 0.000000
	CHANNELS 6 Xposition Yposition Zposition Zrotation Yrotation Xrotation
	JOINT lhip
	{
		OFFSET 0.058581 -0.082280 -0.017664
		CHANNELS 3 Zrotation Yrotation Xrotation
		JOINT lknee
		{
			OFFSET 0.043451 -0.386469 0.008037
			CHANNELS 3 Zrotation Yrotation Xrotation
			JOINT lankle
			{
				OFFSET -0.014790 -0.426874 -0.037428
				CHANNELS 3 Zrotation Yrotation Xrotation
				JOINT ltoe
				{
					OFFSET 0.041054 -0.060286 0.122042
					CHANNELS 3 Zrotation Yrotation Xrotation
					End Site
					{
						OFFSET 0.000000 0.000000 0.000000
					}
				}
			}
		}
	}
	JOINT rhip
	{
		OFFSET -0.060310 -0.090513 -0.013543
		CHANNELS 3 Zrotation Yrotation Xrotation
		JOINT rknee
		{
			OFFSET -0.043257 -0.383688 -0.004843
			CHANNELS 3 Zrotation Yrotation Xrotation
			JOINT rankle
			{
				OFFSET 0.019056 -0.420046 -0.034562
				CHANNELS 3 Zrotation Yrotation Xrotation
				JOINT rtoe
				{
					OFFSET -0.034840 -0.062106 0.130323
					CHANNELS 3 Zrotation Yrotation Xrotation
					End Site
					{
						OFFSET 0.000000 0.000000 0.000000
					}
				}
			}
		}
	}
	JOINT lowerback
	{
		OFFSET 0.004439 0.124404 -0.038385
		CHANNELS 3 Zrotation Yrotation Xrotation
		JOINT upperback
		{
			OFFSET 0.004488 0.137956 0.026820
			CHANNELS 3 Zrotation Yrotation Xrotation
			JOINT chest
			{
				OFFSET -0.002265 0.056032 0.002855
				CHANNELS 3 Zrotation Yrotation Xrotation
				JOINT lowerneck
				{
					OFFSET -0.013390 0.211636 -0.033468
					CHANNELS 3 Zrotation Yrotation Xrotation
					JOINT upperneck
					{
						OFFSET 0.010113 0.088937 0.050410
						CHANNELS 3 Zrotation Yrotation Xrotation
						End Site
						{
							OFFSET 0.000000 0.000000 0.000000
						}
					}
				}
				JOINT lclavicle
				{
					OFFSET 0.071702 0.114000 -0.018898
					CHANNELS 3 Zrotation Yrotation Xrotation
					JOINT lshoulder
					{
						OFFSET 0.122921 0.045205 -0.019046
						CHANNELS 3 Zrotation Yrotation Xrotation
						JOINT lelbow
						{
							OFFSET 0.255332 -0.015649 -0.022946
							CHANNELS 3 Zrotation Yrotation Xrotation
							JOINT lwrist
							{
								OFFSET 0.265709 0.012698 -0.007375
								CHANNELS 3 Zrotation Yrotation Xrotation
								End Site
								{
									OFFSET 0.000000 0.000000 0.000000
								}
							}
						}
					}
				}
				JOINT rclavicle
				{
					OFFSET -0.082954 0.112472 -0.023707
					CHANNELS 3 Zrotation Yrotation Xrotation
					JOINT rshoulder
					{
						OFFSET -0.113228 0.046853 -0.008472
						CHANNELS 3 Zrotation Yrotation Xrotation
						JOINT relbow
						{
							OFFSET -0.260127 -0.014369 -0.031269
							CHANNELS 3 Zrotation Yrotation Xrotation
							JOINT rwrist
							{
								OFFSET -0.269108 0.006794 -0.006027
								CHANNELS 3 Zrotation Yrotation Xrotation
								End Site
								{
									OFFSET 0.000000 0.000000 0.000000
								}
							}
						}
					}
				}
			}
		}
	}
}
MOTION
Frames: 7
Frame Time: 0.033333
-0.156507 0.965616 0.895488 117.834246 -11.477373 77.105101 11.566345 -5.211255 -10.316756 -12.515885 -27.240388 30.366386 -6.615638 -5.438838 -7.276114 0.000000 -0.000000 0.000000 -13.832798 -0.657919 -6.969888 -0.874188 5.323644 55.021991 -0.508742 -12.177485 -41.138510 0.000000 -0.000000 0.000000 -3.317821 -3.920171 7.865198 5.458959 -9.959306 4.672396 1.361558 -8.048525 4.039597 -0.545757 20.969634 -8.704529 -6.733172 18.670775 1.801476 -17.633997 11.520097 -4.014738 -51.369265 -6.017766 2.648626 154.248679 -63.440537 -122.841837 29.120361 -4.410329 -21.222708 20.642613 -12.199610 -9.307394 51.699594 0.998472 11.614036 -128.791874 64.297293 -107.767730 -7.029684 7.612111 -20.087481 
-0.155868 0.970171 0.891870 118.100132 -10.185102 77.023841 12.637685 -5.142625 -10.539431 -12.582377 -26.971056 31.426272 -6.535628 -5.841265 -9.746754 0.000000 -0.000000 0.000000 -13.073460 -0.681806 -6.720756 -0.584611 4.601061 55.411455 -0.029370 -12.103995 -41.397617 0.000000 -0.000000 0.000000 -4.765668 -4.366173 8.354078 6.626436 -11.668939 4.139961 1.960265 -9.177044 4.270503 0.627689 21.256843 -8.439773 -6.829869 16.913058 3.032872 -16.828447 11.367054 -3.643076 -52.371242 -8.233212 3.425257 156.181080 -64.757455 -124.321123 27.828008 -4.966064 -20.582091 21.575672 -13.481112 -10.998582 51.627973 1.575072 12.086180 -128.170003 64.310917 -106.668967 -7.105834 7.432965 -20.027930 
-0.156066 0.974073 0.888150 117.331277 -9.318955 77.307819 13.575717 -5.177647 -10.606467 -12.824918 -27.091834 32.270644 -6.382974 -5.725231 -12.053089 0.000000 -0.000000 0.000000 -12.179368 0.107705 -7.198621 -0.680848 4.418083 56.124086 0.435325 -12.058279 -41.937812 0.000000 -0.000000 0.000000 -5.984047 -4.549575 8.685631 7.312270 -12.258493 3.979032 2.390049 -9.900176 4.055137 1.395316 21.497040 -8.181527 -6.977938 15.879626 3.604653 -16.903348 11.607935 -3.557338 -53.564232 -9.075730 4.278755 158.202021 -65.473902 -125.508249 27.203870 -4.931993 -20.333727 22.432427 -13.966601 -12.186372 52.572220 1.722922 13.217235 -128.779345 64.641378 -106.593192 -7.936711 7.488701 -20.607952 
-0.155506 0.978945 0.885235 116.689833 -8.606811 77.189347 13.991460 -5.519371 -10.064369 -12.743877 -27.320110 32.950899 -5.938424 -5.241536 -13.925428 0.000000 -0.000000 0.000000 -11.322564 0.817627 -6.954978 -0.926363 4.643574 56.296912 0.114144 -12.387922 -42.534803 0.000000 -0.000000 0.000000 -6.931820 -4.521710 9.296639 7.568701 -12.354340 3.686918 2.554137 -10.024940 4.169469 2.252582 20.679146 -8.407009 -6.819564 14.274027 4.418235 -17.366139 12.190739 -3.540345 -55.208110 -9.211484 5.284131 161.156489 -66.155461 -127.758040 27.452918 -4.516228 -19.917340 23.414141 -14.181732 -12.603483 53.812565 1.736944 14.343765 -130.669063 65.232594 -108.244361 -8.432114 7.364329 -20.974453 
-0.156270 0.984088 0.882886 116.208006 -7.994241 77.238191 14.318745 -5.856299 -10.178609 -12.905425 -26.776101 34.109781 -5.633034 -5.044028 -15.494609 0.000000 -0.000000 0.000000 -10.686060 1.276406 -6.920615 -1.255691 4.809233 56.309623 0.408783 -12.315133 -42.447569 0.000000 -0.000000 0.000000 -7.445558 -4.131456 9.743365 7.534269 -11.814234 3.405892 2.543974 -9.683652 4.363453 2.647299 19.490928 -9.277007 -6.303113 11.969903 5.115361 -18.275868 12.839852 -3.410235 -56.874117 -8.502116 6.361787 163.276310 -66.747367 -129.279057 27.125403 -4.922291 -20.082689 24.358901 -14.158392 -13.070981 55.263297 1.352751 15.461210 -133.328134 66.365543 -110.379933 -8.349537 7.332382 -22.145763 
-0.156674 0.990270 0.881849 115.749612 -7.585821 77.142184 14.454929 -5.788488 -9.835557 -13.065134 -26.692851 34.700413 -5.143868 -4.895149 -16.737606 0.000000 -0.000000 0.000000 -10.562300 1.534813 -6.476184 -1.298713 5.084018 55.937073 0.620228 -12.116862 -42.339747 0.000000 -0.000000 0.000000 -7.720923 -3.496473 9.809487 7.142395 -10.758689 3.872478 2.342052 -8.974183 4.269755 3.434198 17.279699 -10.134652 -5.998156 8.912298 5.803106 -19.163254 13.817024 -3.519663 -57.855923 -6.957209 7.038483 165.900289 -67.515473 -131.199225 26.658899 -5.110766 -19.867632 24.800963 -13.312351 -12.692076 56.628126 1.152853 16.622858 -135.429128 67.798425 -112.468297 -7.594090 7.536386 -23.333738 
-0.156671 0.997042 0.881209 115.057468 -7.156179 77.346121 14.924660 -5.836285 -9.264139 -13.289253 -26.658236 34.400498 -5.241386 -4.784695 -18.329607 0.000000 -0.000000 0.000000 -10.832714 1.466231 -6.399735 -0.952074 5.228869 55.470266 0.646023 -11.283435 -42.531024 0.000000 -0.000000 0.000000 -7.405771 -2.323927 9.141088 6.588829 -8.936870 4.476994 1.945036 -7.809540 4.328453 4.133832 14.831864 -10.834783 -5.810514 4.734097 6.136437 -20.237806 14.843280 -3.483306 -57.969129 -5.384582 7.118082 168.011385 -68.402731 -133.128974 23.509169 -5.552442 -19.063699 25.194842 -12.511186 -11.846461 57.076951 1.344928 17.052283 -139.857672 69.714793 -116.564773 -7.554452 7.441031 -24.525744 
